<svg xmlns="http://www.w3.org/2000/svg" xmlns:svg="http://www.w3.org/2000/svg" xmlns:xlink="http://www.w3.org/1999/xlink" version="1.0" height="740pt" width="888.1800000000002pt" viewBox="504.9999999999999 -23 896.1800000000002 746" ><defs><style type="text/css">
            @font-face {
                font-family: 'lt_regular';
                src: url('https://app.creately.com/diagram/assets/fonts/lato/lt-regular-webfont.woff2') format('woff2'),
                    url('https://app.creately.com/diagram/assets/fonts/lato/lt-regular-webfont.woff') format('woff');
                font-weight: normal;
                font-style: normal;
            }
            @font-face {
                font-family: 'noto_regular';
                src: url('https://app.creately.com/diagram/assets/fonts/noto/noto-regular.woff') format('woff'),
                     url('https://app.creately.com/diagram/assets/fonts/noto/noto-regular.woff2') format('woff2');
                font-weight: normal;
                font-style: normal;
            }
        p {
            margin: 0;
        }
        </style></defs><defs><style>
            span{ display: inline-block; }
        </style></defs><g id="yOZyZvHWFcH"><g transform="translate(509.9999999999999 310)"><path d="M 20,40 L 20,40 L 20,40 A 20 20 0 0 1 0 20.000000000000004 L 0,20 L 0,20.000000000000004 A 20 20 0 0 1 20 0 L 85.41,0 L 85.41,0 L 85.41,0 A 20 20 0 0 1 105.41 20 L 105.41,20 L 105.41,20 A 20 20 0 0 1 85.41 40 L 20,40 Z" fill="rgb(32,41,58)" stroke="#20293a" stroke-width="2" stroke-linecap="round" stroke-linejoin="round" stroke-dasharray="0 0"/></g><g transform="translate(519.9999999999999, 321) rotate(0, 42.705, 9)" width="85.41" height="18"><text text-decoration="none" x="1.2049999999999983" fill="#ffffff" font-size="10pt" font-family="lt_regular"  y="17">Probable&#160;</text><text text-decoration="none" x="54.205" fill="#ffffff" font-size="10pt" font-family="lt_regular"  y="17">Risks</text><text text-decoration="none" x="84.205" fill="#4b4b4b" font-size="10pt" font-family="noto_regular"  y="17"></text></g></g><g id="Ipk86Ms8D3h"><g transform="translate(900.0000000000001 139.99999999999997)"><rect x="0" y="35" width="165.49" height="5" fill="rgb(42,77,209)" stroke="#2a4dd1" stroke-width="2" stroke-linecap="round" stroke-linejoin="round" stroke-dasharray="0 0"/><rect x="0" y="0" width="165.49" height="40" fill="rgba(255,255,255,0.01)" stroke="rgba(255,255,255,0.01)" stroke-width="2" stroke-linecap="round" stroke-linejoin="round" stroke-dasharray="0 0"/></g><g transform="translate(900.0000000000001, 149.99999999999997) rotate(0, 0, 0)" width="145.49" height="18"><text text-decoration="none" x="0" fill="#7e7e7e" font-size="10pt" font-family="lt_regular"  y="17">Unexpected&#160;</text><text text-decoration="none" x="72" fill="#7e7e7e" font-size="10pt" font-family="lt_regular"  y="17">Expenditure</text><text text-decoration="none" x="141" fill="#4b4b4b" font-size="10pt" font-family="noto_regular"  y="17"></text></g></g><g id="1q3DEWZS60L"><g><path d="M 615,330 C 757.5,330 757.5,177.5 900,177" fill="none" stroke="#2a4dd1" stroke-width="2" stroke-linecap="round" stroke-linejoin="round"/></g></g><g id="FoJlj8o89ut"><g transform="translate(1179.999999999999 109.99999999999994)"><rect x="0" y="35" width="165.49" height="5" fill="rgb(42,77,209)" stroke="#2a4dd1" stroke-width="2" stroke-linecap="round" stroke-linejoin="round" stroke-dasharray="0 0"/><rect x="0" y="0" width="165.49" height="40" fill="rgba(255,255,255,0.01)" stroke="rgba(255,255,255,0.01)" stroke-width="2" stroke-linecap="round" stroke-linejoin="round" stroke-dasharray="0 0"/></g><g transform="translate(1179.999999999999, 119.99999999999994) rotate(0, 0, 0)" width="145.49" height="18"><text text-decoration="none" x="0" fill="#7e7e7e" font-size="10pt" font-family="lt_regular"  y="17">Unexpected&#160;</text><text text-decoration="none" x="72" fill="#7e7e7e" font-size="10pt" font-family="lt_regular"  y="17">Expenditure</text><text text-decoration="none" x="141" fill="#4b4b4b" font-size="10pt" font-family="noto_regular"  y="17"></text></g></g><g id="CNvy8DOHgOy"><g><path d="M 1065,177 C 1122.4149999999995,177.49999999999997 1122.4149999999995,147.49999999999994 1180,147" fill="none" stroke="#2a4dd1" stroke-width="2" stroke-linecap="round" stroke-linejoin="round"/></g></g><g id="k2th7UNRTXc"><g transform="translate(1179.999999999999 169.99999999999991)"><rect x="0" y="35" width="122.4" height="5" fill="rgb(42,77,209)" stroke="#2a4dd1" stroke-width="2" stroke-linecap="round" stroke-linejoin="round" stroke-dasharray="0 0"/><rect x="0" y="0" width="122.4" height="40" fill="rgba(255,255,255,0.01)" stroke="rgba(255,255,255,0.01)" stroke-width="2" stroke-linecap="round" stroke-linejoin="round" stroke-dasharray="0 0"/></g><g transform="translate(1179.999999999999, 179.99999999999991) rotate(0, 0, 0)" width="102.4" height="18"><text text-decoration="none" x="0" fill="#7e7e7e" font-size="10pt" font-family="lt_regular"  y="17">Budget&#160;</text><text text-decoration="none" x="44" fill="#7e7e7e" font-size="10pt" font-family="lt_regular"  y="17">Exceeded</text><text text-decoration="none" x="99" fill="#4b4b4b" font-size="10pt" font-family="noto_regular"  y="17"></text></g></g><g id="hIafkkZKhCw"><mask id="70269" x="1051" y="163" width="143" height="58.00618098956326" maskUnits="userSpaceOnUse"><rect x="1051" y="163" width="143" height="58.00618098956326" fill="white" />undefined</mask><g mask="url(#70269)"><path d="M 1065,177 C 1122.4149999999995,177.49999999999997 1122.4149999999995,207.49999999999991 1180,207" fill="none" stroke="#2a4dd1" stroke-width="2" stroke-linecap="round" stroke-linejoin="round"/></g>undefined</g><g id="6o9F2CHS5CF"><g transform="translate(890 300)"><rect x="0" y="35" width="176.85" height="5" fill="rgb(66,146,136)" stroke="#429288" stroke-width="2" stroke-linecap="round" stroke-linejoin="round" stroke-dasharray="0 0"/><rect x="0" y="0" width="176.85" height="40" fill="rgba(255,255,255,0.01)" stroke="rgba(255,255,255,0.01)" stroke-width="2" stroke-linecap="round" stroke-linejoin="round" stroke-dasharray="0 0"/></g><g transform="translate(890, 310) rotate(0, 0, 0)" width="156.85" height="18"><text text-decoration="none" x="0" fill="#7e7e7e" font-size="10pt" font-family="lt_regular"  y="17">Running&#160;</text><text text-decoration="none" x="49" fill="#7e7e7e" font-size="10pt" font-family="lt_regular"  y="17">Out&#160;</text><text text-decoration="none" x="74" fill="#7e7e7e" font-size="10pt" font-family="lt_regular"  y="17">Of&#160;</text><text text-decoration="none" x="92" fill="#7e7e7e" font-size="10pt" font-family="lt_regular"  y="17">Resources</text><text text-decoration="none" x="151" fill="#4b4b4b" font-size="10pt" font-family="noto_regular"  y="17"></text></g></g><g id="PM8ZeJhCweA"><g><path d="M 615,330 C 752.5,330 752.5,338.6428571428571 890,339" fill="none" stroke="#429288" stroke-width="2" stroke-linecap="round" stroke-linejoin="round"/></g></g><g id="gvws3iSMBfs"><g transform="translate(1180 259.99999999999994)"><rect x="0" y="35" width="141.00000000000003" height="5" fill="rgb(66,146,136)" stroke="#429288" stroke-width="2" stroke-linecap="round" stroke-linejoin="round" stroke-dasharray="0 0"/><rect x="0" y="0" width="141.00000000000003" height="40" fill="rgba(255,255,255,0.01)" stroke="rgba(255,255,255,0.01)" stroke-width="2" stroke-linecap="round" stroke-linejoin="round" stroke-dasharray="0 0"/></g><g transform="translate(1180, 269.99999999999994) rotate(0, 0, 0)" width="120.69" height="18"><text text-decoration="none" x="0" fill="#7e7e7e" font-size="10pt" font-family="lt_regular"  y="17">Machine&#160;</text><text text-decoration="none" x="51" fill="#7e7e7e" font-size="10pt" font-family="lt_regular"  y="17">Breakdown</text><text text-decoration="none" x="115" fill="#4b4b4b" font-size="10pt" font-family="noto_regular"  y="17"></text></g></g><g id="hfzGS0uupHH"><g><path d="M 1057,338 C 1118.565,337.5 1118.565,298.6428571428571 1180,299" fill="none" stroke="#429288" stroke-width="2" stroke-linecap="round" stroke-linejoin="round"/></g></g><g id="QlVqb0baLPd"><g transform="translate(1180 320)"><rect x="0" y="35" width="200.15" height="5" fill="rgb(66,146,136)" stroke="#429288" stroke-width="2" stroke-linecap="round" stroke-linejoin="round" stroke-dasharray="0 0"/><rect x="0" y="0" width="200.15" height="40" fill="rgba(255,255,255,0.01)" stroke="rgba(255,255,255,0.01)" stroke-width="2" stroke-linecap="round" stroke-linejoin="round" stroke-dasharray="0 0"/></g><g transform="translate(1180, 330) rotate(0, 0, 0)" width="180.15" height="18"><text text-decoration="none" x="0" fill="#7e7e7e" font-size="10pt" font-family="lt_regular"  y="17">Best&#160;</text><text text-decoration="none" x="29" fill="#7e7e7e" font-size="10pt" font-family="lt_regular"  y="17">Employee&#160;</text><text text-decoration="none" x="89" fill="#7e7e7e" font-size="10pt" font-family="lt_regular"  y="17">Quits&#160;</text><text text-decoration="none" x="123" fill="#7e7e7e" font-size="10pt" font-family="lt_regular"  y="17">Suddenly</text><text text-decoration="none" x="175" fill="#4b4b4b" font-size="10pt" font-family="noto_regular"  y="17"></text></g></g><g id="M9j7cvK1p9e"><g><path d="M 1057,338 C 1118.565,337.5 1118.565,358.6428571428571 1180,359" fill="none" stroke="#429288" stroke-width="2" stroke-linecap="round" stroke-linejoin="round"/></g></g><g id="0ekYolBbL7y"><g transform="translate(1180 379.99999999999994)"><rect x="0" y="35" width="218.18" height="5" fill="rgb(66,146,136)" stroke="#429288" stroke-width="2" stroke-linecap="round" stroke-linejoin="round" stroke-dasharray="0 0"/><rect x="0" y="0" width="218.18" height="40" fill="rgba(255,255,255,0.01)" stroke="rgba(255,255,255,0.01)" stroke-width="2" stroke-linecap="round" stroke-linejoin="round" stroke-dasharray="0 0"/></g><g transform="translate(1180, 389.99999999999994) rotate(0, 0, 0)" width="198.18" height="18"><text text-decoration="none" x="0" fill="#7e7e7e" font-size="10pt" font-family="lt_regular"  y="17">Loses&#160;</text><text text-decoration="none" x="36" fill="#7e7e7e" font-size="10pt" font-family="lt_regular"  y="17">Main&#160;</text><text text-decoration="none" x="67" fill="#7e7e7e" font-size="10pt" font-family="lt_regular"  y="17">Raw&#160;</text><text text-decoration="none" x="94" fill="#7e7e7e" font-size="10pt" font-family="lt_regular"  y="17">Material&#160;</text><text text-decoration="none" x="144" fill="#7e7e7e" font-size="10pt" font-family="lt_regular"  y="17">Supplier</text><text text-decoration="none" x="190" fill="#4b4b4b" font-size="10pt" font-family="noto_regular"  y="17"></text></g></g><g id="HmojcSKtk68"><g><path d="M 1057,338 C 1118.565,337.5 1118.565,418.6428571428571 1180,419" fill="none" stroke="#429288" stroke-width="2" stroke-linecap="round" stroke-linejoin="round"/></g></g><g id="GCD103OPOtQ"><g transform="translate(909.9999999999999 499.9999999999999)"><rect x="0" y="35" width="115" height="5" fill="rgb(231,121,117)" stroke="#e77975" stroke-width="2" stroke-linecap="round" stroke-linejoin="round" stroke-dasharray="0 0"/><rect x="0" y="0" width="115" height="40" fill="rgba(255,255,255,0.01)" stroke="rgba(255,255,255,0.01)" stroke-width="2" stroke-linecap="round" stroke-linejoin="round" stroke-dasharray="0 0"/></g><g transform="translate(909.9999999999999, 509.9999999999999) rotate(0, 0, 0)" width="85.02" height="18"><text text-decoration="none" x="0" fill="#7e7e7e" font-size="10pt" font-family="lt_regular"  y="17">Environmental</text><text text-decoration="none" x="83" fill="#4b4b4b" font-size="10pt" font-family="noto_regular"  y="17"></text></g></g><g id="A5uS6X7x7My"><g><path d="M 615,330 C 762.4999999999999,330 762.4999999999999,537.4999999999999 910,537" fill="none" stroke="#e77975" stroke-width="2" stroke-linecap="round" stroke-linejoin="round"/></g></g><g id="7hSBWkeBrmZ"><g transform="translate(1179.9999999999995 450)"><rect x="0" y="35" width="168.74" height="5" fill="rgb(231,121,117)" stroke="#e77975" stroke-width="2" stroke-linecap="round" stroke-linejoin="round" stroke-dasharray="0 0"/><rect x="0" y="0" width="168.74" height="40" fill="rgba(255,255,255,0.01)" stroke="rgba(255,255,255,0.01)" stroke-width="2" stroke-linecap="round" stroke-linejoin="round" stroke-dasharray="0 0"/></g><g transform="translate(1179.9999999999995, 460) rotate(0, 0, 0)" width="148.74" height="18"><text text-decoration="none" x="0" fill="#7e7e7e" font-size="10pt" font-family="lt_regular"  y="17">Weather&#160;</text><text text-decoration="none" x="53" fill="#7e7e7e" font-size="10pt" font-family="lt_regular"  y="17">Delays&#160;</text><text text-decoration="none" x="95" fill="#7e7e7e" font-size="10pt" font-family="lt_regular"  y="17">Progress</text><text text-decoration="none" x="146" fill="#4b4b4b" font-size="10pt" font-family="noto_regular"  y="17"></text></g></g><g id="ytapmQGSYm6"><g><path d="M 1025,537 C 1102.4999999999998,537.4999999999999 1102.4999999999998,487.5 1180,488" fill="none" stroke="#e77975" stroke-width="2" stroke-linecap="round" stroke-linejoin="round"/></g></g><g id="py2LDSIn1jC"><g transform="translate(1179.9999999999995 499.99999999999966)"><rect x="0" y="35" width="138.70999999999998" height="5" fill="rgb(231,121,117)" stroke="#e77975" stroke-width="2" stroke-linecap="round" stroke-linejoin="round" stroke-dasharray="0 0"/><rect x="0" y="0" width="138.70999999999998" height="40" fill="rgba(255,255,255,0.01)" stroke="rgba(255,255,255,0.01)" stroke-width="2" stroke-linecap="round" stroke-linejoin="round" stroke-dasharray="0 0"/></g><g transform="translate(1179.9999999999995, 509.99999999999966) rotate(0, 0, 0)" width="118.71" height="18"><text text-decoration="none" x="0" fill="#7e7e7e" font-size="10pt" font-family="lt_regular"  y="17">Warehouse&#160;</text><text text-decoration="none" x="68" fill="#7e7e7e" font-size="10pt" font-family="lt_regular"  y="17">Flooded</text><text text-decoration="none" x="113" fill="#4b4b4b" font-size="10pt" font-family="noto_regular"  y="17"></text></g></g><g id="gw6ne0LRJde"><g><path d="M 1025,537 C 1102.4999999999998,537.4999999999999 1102.4999999999998,537.4999999999997 1180,537" fill="none" stroke="#e77975" stroke-width="2" stroke-linecap="round" stroke-linejoin="round"/></g></g><g id="nKoNnsaeqdJ"><g transform="translate(1179.9999999999995 549.9999999999999)"><rect x="0" y="35" width="183" height="5" fill="rgb(231,121,117)" stroke="#e77975" stroke-width="2" stroke-linecap="round" stroke-linejoin="round" stroke-dasharray="0 0"/><rect x="0" y="0" width="183" height="40" fill="rgba(255,255,255,0.01)" stroke="rgba(255,255,255,0.01)" stroke-width="2" stroke-linecap="round" stroke-linejoin="round" stroke-dasharray="0 0"/></g><g transform="translate(1179.9999999999995, 559.9999999999999) rotate(0, 0, 0)" width="117.29" height="18"><text text-decoration="none" x="0" fill="#7e7e7e" font-size="10pt" font-family="lt_regular"  y="17">Earthquake/&#160;</text><text text-decoration="none" x="74" fill="#7e7e7e" font-size="10pt" font-family="lt_regular"  y="17">Storms</text><text text-decoration="none" x="115" fill="#4b4b4b" font-size="10pt" font-family="noto_regular"  y="17"></text></g></g><g id="m06tpQyvgWX"><g><path d="M 1025,537 C 1102.4999999999998,537.4999999999999 1102.4999999999998,587.4999999999999 1180,587" fill="none" stroke="#e77975" stroke-width="2" stroke-linecap="round" stroke-linejoin="round"/></g></g><g id="uXromHn9GNJ"><g transform="translate(900.0000000000001 9.999999999999957)"><rect x="0" y="35" width="110" height="5" fill="rgb(116,62,228)" stroke="#743ee4" stroke-width="2" stroke-linecap="round" stroke-linejoin="round" stroke-dasharray="0 0"/><rect x="0" y="0" width="110" height="40" fill="rgba(255,255,255,0.01)" stroke="rgba(255,255,255,0.01)" stroke-width="2" stroke-linecap="round" stroke-linejoin="round" stroke-dasharray="0 0"/></g><g transform="translate(900.0000000000001, 19.999999999999957) rotate(0, 0, 0)" width="29.07" height="18"><text text-decoration="none" x="0" fill="#7e7e7e" font-size="10pt" font-family="lt_regular"  y="17">Time</text><text text-decoration="none" x="29" fill="#4b4b4b" font-size="10pt" font-family="noto_regular"  y="17"></text></g></g><g id="7V9M8TH6nHk"><g><path d="M 615,330 C 757.5,330 757.5,47.49999999999997 900,47" fill="none" stroke="#743ee4" stroke-width="2" stroke-linecap="round" stroke-linejoin="round"/></g></g><g id="nKGZG1Jl6zS"><g transform="translate(1179.9999999999986 -20)"><rect x="0" y="35" width="131.45999999999998" height="5" fill="rgb(116,62,228)" stroke="#743ee4" stroke-width="2" stroke-linecap="round" stroke-linejoin="round" stroke-dasharray="0 0"/><rect x="0" y="0" width="131.45999999999998" height="40" fill="rgba(255,255,255,0.01)" stroke="rgba(255,255,255,0.01)" stroke-width="2" stroke-linecap="round" stroke-linejoin="round" stroke-dasharray="0 0"/></g><g transform="translate(1179.9999999999986, -10) rotate(0, 0, 0)" width="111.46" height="18"><text text-decoration="none" x="0" fill="#7e7e7e" font-size="10pt" font-family="lt_regular"  y="17">Schedule&#160;</text><text text-decoration="none" x="54" fill="#7e7e7e" font-size="10pt" font-family="lt_regular"  y="17">Overruns</text><text text-decoration="none" x="108" fill="#4b4b4b" font-size="10pt" font-family="noto_regular"  y="17"></text></g></g><g id="a0cwxskC3DE"><g transform="translate(1179.9999999999986 29.999999999999773)"><rect x="0" y="35" width="186.21" height="5" fill="rgb(116,62,228)" stroke="#743ee4" stroke-width="2" stroke-linecap="round" stroke-linejoin="round" stroke-dasharray="0 0"/><rect x="0" y="0" width="186.21" height="40" fill="rgba(255,255,255,0.01)" stroke="rgba(255,255,255,0.01)" stroke-width="2" stroke-linecap="round" stroke-linejoin="round" stroke-dasharray="0 0"/></g><g transform="translate(1179.9999999999986, 39.99999999999977) rotate(0, 0, 0)" width="166.21" height="18"><text text-decoration="none" x="0" fill="#7e7e7e" font-size="10pt" font-family="lt_regular"  y="17">Client&#160;</text><text text-decoration="none" x="37" fill="#7e7e7e" font-size="10pt" font-family="lt_regular"  y="17">Changes&#160;</text><text text-decoration="none" x="89" fill="#7e7e7e" font-size="10pt" font-family="lt_regular"  y="17">the&#160;</text><text text-decoration="none" x="111" fill="#7e7e7e" font-size="10pt" font-family="lt_regular"  y="17">Deadline</text><text text-decoration="none" x="161" fill="#4b4b4b" font-size="10pt" font-family="noto_regular"  y="17"></text></g></g><g id="HqDuJUr9oSO"><g><path d="M 1010,47 C 1094.9999999999993,47.49999999999996 1094.9999999999993,67.49999999999979 1180,67" fill="none" stroke="#743ee4" stroke-width="2" stroke-linecap="round" stroke-linejoin="round"/></g></g><g id="LotiJIThEdB"><g transform="translate(910 650)"><rect x="0" y="35" width="110" height="5" fill="rgb(242,193,75)" stroke="#f2c14b" stroke-width="2" stroke-linecap="round" stroke-linejoin="round" stroke-dasharray="0 0"/><rect x="0" y="0" width="110" height="40" fill="rgba(255,255,255,0.01)" stroke="rgba(255,255,255,0.01)" stroke-width="2" stroke-linecap="round" stroke-linejoin="round" stroke-dasharray="0 0"/></g><g transform="translate(910, 660) rotate(0, 0, 0)" width="58.88" height="18"><text text-decoration="none" x="0" fill="#7e7e7e" font-size="10pt" font-family="lt_regular"  y="17">Technical&#160;</text><text text-decoration="none" x="56" fill="#4b4b4b" font-size="10pt" font-family="noto_regular"  y="17"></text></g></g><g id="gnh2hi5HFms"><g><path d="M 615,330 C 762.5,330 762.5,683.5 910,684" fill="none" stroke="#f2c14b" stroke-width="2" stroke-linecap="round" stroke-linejoin="round"/></g></g><g id="z37V9mmMUHk"><g transform="translate(1179.9999999999995 620)"><rect x="0" y="35" width="110" height="5" fill="rgb(242,193,75)" stroke="#f2c14b" stroke-width="2" stroke-linecap="round" stroke-linejoin="round" stroke-dasharray="0 0"/><rect x="0" y="0" width="110" height="40" fill="rgba(255,255,255,0.01)" stroke="rgba(255,255,255,0.01)" stroke-width="2" stroke-linecap="round" stroke-linejoin="round" stroke-dasharray="0 0"/></g><g transform="translate(1179.9999999999995, 630) rotate(0, 0, 0)" width="79.65" height="18"><text text-decoration="none" x="0" fill="#7e7e7e" font-size="10pt" font-family="lt_regular"  y="17">System&#160;</text><text text-decoration="none" x="46" fill="#7e7e7e" font-size="10pt" font-family="lt_regular"  y="17">Crash</text><text text-decoration="none" x="79" fill="#4b4b4b" font-size="10pt" font-family="noto_regular"  y="17"></text></g></g><g id="abPUxnQfUXV"><g transform="translate(1179.9999999999995 680)"><rect x="0" y="35" width="110" height="5" fill="rgb(242,193,75)" stroke="#f2c14b" stroke-width="2" stroke-linecap="round" stroke-linejoin="round" stroke-dasharray="0 0"/><rect x="0" y="0" width="110" height="40" fill="rgba(255,255,255,0.01)" stroke="rgba(255,255,255,0.01)" stroke-width="2" stroke-linecap="round" stroke-linejoin="round" stroke-dasharray="0 0"/></g><g transform="translate(1179.9999999999995, 690) rotate(0, 0, 0)" width="86.9" height="18"><text text-decoration="none" x="0" fill="#7e7e7e" font-size="10pt" font-family="lt_regular"  y="17">Software&#160;</text><text text-decoration="none" x="55" fill="#7e7e7e" font-size="10pt" font-family="lt_regular"  y="17">Virus</text><text text-decoration="none" x="85" fill="#4b4b4b" font-size="10pt" font-family="noto_regular"  y="17"></text></g></g><g id="0UMrKHLegqd"><g><path d="M 1010,47 C 1094.9999999999993,47.49999999999996 1094.9999999999993,17.50000000000001 1180,18" fill="none" stroke="#743ee4" stroke-width="2" stroke-linecap="round" stroke-linejoin="round"/></g></g><g id="OgoCqSdJpfS"><g><path d="M 1020,689 C 1099.9999999999998,688.6428571428571 1099.9999999999998,658.6428571428571 1180,659" fill="none" stroke="#f2c14b" stroke-width="2" stroke-linecap="round" stroke-linejoin="round"/></g></g><g id="BMm8Zhuv8nj"><g><path d="M 1020,689 C 1099.9999999999998,688.6428571428571 1099.9999999999998,718.6428571428571 1180,719" fill="none" stroke="#f2c14b" stroke-width="2" stroke-linecap="round" stroke-linejoin="round"/></g></g></svg>