<svg xmlns="http://www.w3.org/2000/svg" xmlns:svg="http://www.w3.org/2000/svg" xmlns:xlink="http://www.w3.org/1999/xlink" version="1.0" height="460pt" width="840pt" viewBox="405 117 848 466" ><defs><style type="text/css">
            @font-face {
                font-family: 'lt_regular';
                src: url('https://app.creately.com/diagram/assets/fonts/lato/lt-regular-webfont.woff2') format('woff2'),
                    url('https://app.creately.com/diagram/assets/fonts/lato/lt-regular-webfont.woff') format('woff');
                font-weight: normal;
                font-style: normal;
            }
            @font-face {
                font-family: 'noto_regular';
                src: url('https://app.creately.com/diagram/assets/fonts/noto/noto-regular.woff') format('woff'),
                     url('https://app.creately.com/diagram/assets/fonts/noto/noto-regular.woff2') format('woff2');
                font-weight: normal;
                font-style: normal;
            }
        p {
            margin: 0;
        }
        </style></defs><defs><style>
            span{ display: inline-block; }
        </style></defs><g id="PAkBqcyHMQ6"><g transform="translate(410 120)"><rect x="0" y="0" width="840" height="459.99999999999994" fill="rgb(8,65,95)" stroke="#08415F" stroke-width="2" stroke-linecap="round" stroke-linejoin="round" stroke-dasharray="0 0"/></g></g><g id="AUqijvTsy4j"><g transform="translate(770 300)"><rect x="0" y="0" width="160" height="90" fill="rgb(245,196,87)" stroke="#F5C457" stroke-width="2" stroke-linecap="round" stroke-linejoin="round" stroke-dasharray="0 0"/></g><g transform="translate(831.37, 336) rotate(0, 18.63, 9)" width="37.26" height="18"><text text-decoration="none" x="0.129999999999999" fill="#ffffff" font-size="10pt" font-family="lt_regular"  y="17">Event&#160;</text><text text-decoration="none" x="37.129999999999995" fill="#4b4b4b" font-size="10pt" font-family="noto_regular"  y="17"></text></g></g><g id="1WSwpJsBL1p"><g transform="translate(470 170)"><rect x="0" y="0" width="160" height="90" fill="rgb(141,161,59)" stroke="#8DA13B" stroke-width="2" stroke-linecap="round" stroke-linejoin="round" stroke-dasharray="0 0"/></g><g transform="translate(532.115, 206) rotate(0, 17.885, 9)" width="35.77" height="18"><text text-decoration="none" x="0.38500000000000156" fill="#ffffff" font-size="10pt" font-family="lt_regular"  y="17">Cause</text><text text-decoration="none" x="35.385000000000005" fill="#4b4b4b" font-size="10pt" font-family="noto_regular"  y="17"></text></g></g><g id="RYhJwkBgLtd"><mask id="90925" x="616" y="201" width="168" height="128" maskUnits="userSpaceOnUse"><rect x="616" y="201" width="168" height="128" fill="white" />undefinedundefinedundefined</mask><g mask="url(#90925)"><path d="M 630,215 L 770,315" fill="none" stroke="#BCC3C6" stroke-width="2" stroke-linecap="round" stroke-linejoin="round" stroke-dasharray="0 0"/><path d="M 770,315 L 766.2661763860001,305.2667873777865 L 759.5819371582305,314.62472229666395 Z" fill="rgb(188,195,198)" stroke="#BCC3C6" stroke-width="2" stroke-linecap="round" stroke-linejoin="round"/></g>undefinedundefinedundefined</g><g id="hYnuBI4dAnH"><g transform="translate(470 300)"><rect x="0" y="0" width="160" height="90" fill="rgb(141,161,59)" stroke="#8DA13B" stroke-width="2" stroke-linecap="round" stroke-linejoin="round" stroke-dasharray="0 0"/></g><g transform="translate(532.115, 336) rotate(0, 17.885, 9)" width="35.77" height="18"><text text-decoration="none" x="0.38500000000000156" fill="#ffffff" font-size="10pt" font-family="lt_regular"  y="17">Cause</text><text text-decoration="none" x="35.385000000000005" fill="#4b4b4b" font-size="10pt" font-family="noto_regular"  y="17"></text></g></g><g id="bvdt2NdEgzX"><g transform="translate(470 430)"><rect x="0" y="0" width="160" height="90" fill="rgb(141,161,59)" stroke="#8DA13B" stroke-width="2" stroke-linecap="round" stroke-linejoin="round" stroke-dasharray="0 0"/></g><g transform="translate(532.115, 466) rotate(0, 17.885, 9)" width="35.77" height="18"><text text-decoration="none" x="0.38500000000000156" fill="#ffffff" font-size="10pt" font-family="lt_regular"  y="17">Cause</text><text text-decoration="none" x="35.385000000000005" fill="#4b4b4b" font-size="10pt" font-family="noto_regular"  y="17"></text></g></g><g id="hKD9f2Fb1t0"><g><path d="M 630,345 L 690,345 Q 691,345 700,346 Q 710,346 710,346 L 770,346" fill="none" stroke="#BCC3C6" stroke-width="2" stroke-linecap="round" stroke-linejoin="round" stroke-dasharray="0 0"/><path d="M 770,346 L 761.304347826087,340.25 L 761.304347826087,351.75 Z" fill="rgb(188,195,198)" stroke="#BCC3C6" stroke-width="2" stroke-linecap="round" stroke-linejoin="round"/></g></g><g id="9iteBv0j40t"><g><path d="M 630,475 L 770,374" fill="none" stroke="#BCC3C6" stroke-width="2" stroke-linecap="round" stroke-linejoin="round" stroke-dasharray="0 0"/><path d="M 770,374 L 759.5838218668988,374.42438170222334 L 766.3120978218216,383.750704808057 Z" fill="rgb(188,195,198)" stroke="#BCC3C6" stroke-width="2" stroke-linecap="round" stroke-linejoin="round"/></g></g><g id="bhCuliKuUZJ"><g transform="translate(1050 170)"><rect x="0" y="0" width="160" height="90" fill="rgb(139,139,139)" stroke="#8B8B8B" stroke-width="2" stroke-linecap="round" stroke-linejoin="round" stroke-dasharray="0 0"/></g><g transform="translate(1112.395, 206) rotate(0, 17.605, 9)" width="35.21" height="18"><text text-decoration="none" x="0" fill="#ffffff" font-size="10pt" font-family="lt_regular"  y="17">Effect</text><text text-decoration="none" x="36" fill="#4b4b4b" font-size="10pt" font-family="noto_regular"  y="17"></text></g></g><g id="weIQNU0va2X"><g transform="translate(1050 300)"><rect x="0" y="0" width="160" height="90" fill="rgb(139,139,139)" stroke="#8B8B8B" stroke-width="2" stroke-linecap="round" stroke-linejoin="round" stroke-dasharray="0 0"/></g><g transform="translate(1112.395, 336) rotate(0, 17.605, 9)" width="35.21" height="18"><text text-decoration="none" x="0" fill="#ffffff" font-size="10pt" font-family="lt_regular"  y="17">Effect</text><text text-decoration="none" x="36" fill="#4b4b4b" font-size="10pt" font-family="noto_regular"  y="17"></text></g></g><g id="2onquhEMUKv"><g transform="translate(1050 430)"><rect x="0" y="0" width="160" height="90" fill="rgb(139,139,139)" stroke="#8B8B8B" stroke-width="2" stroke-linecap="round" stroke-linejoin="round" stroke-dasharray="0 0"/></g><g transform="translate(1112.395, 466) rotate(0, 17.605, 9)" width="35.21" height="18"><text text-decoration="none" x="0" fill="#ffffff" font-size="10pt" font-family="lt_regular"  y="17">Effect</text><text text-decoration="none" x="36" fill="#4b4b4b" font-size="10pt" font-family="noto_regular"  y="17"></text></g></g><g id="Pcta00JTJbO"><g><path d="M 930,344 L 980,344 Q 981,344 990,345 Q 1000,345 1000,345 L 1050,345" fill="none" stroke="#BCC3C6" stroke-width="2" stroke-linecap="round" stroke-linejoin="round" stroke-dasharray="0 0"/><path d="M 930,344 L 938.695652173913,349.75 L 938.695652173913,338.25 Z" fill="rgb(188,195,198)" stroke="#BCC3C6" stroke-width="2" stroke-linecap="round" stroke-linejoin="round"/></g></g><g id="pZ9sxgtBAXi"><g><path d="M 930,381 L 1050,475" fill="none" stroke="#BCC3C6" stroke-width="2" stroke-linecap="round" stroke-linejoin="round" stroke-dasharray="0 0"/><path d="M 930,381 L 933.2996549772645,390.88883935356887 L 940.3912676928048,381.8357167379855 Z" fill="rgb(188,195,198)" stroke="#BCC3C6" stroke-width="2" stroke-linecap="round" stroke-linejoin="round"/></g></g><g id="UOYZZCIrTlV"><g><path d="M 1050,215 L 930,315" fill="none" stroke="#BCC3C6" stroke-width="2" stroke-linecap="round" stroke-linejoin="round"/><path d="M 930,315 L 940.361245338048,313.85045149103723 L 932.9991247419064,305.0159067756674 Z" fill="rgb(188,195,198)" stroke="#BCC3C6" stroke-width="2" stroke-linecap="round" stroke-linejoin="round"/></g></g></svg>